<svg width="127" height="48" viewBox="0 0 127 48" fill="none" xmlns="http://www.w3.org/2000/svg">
<path d="M50 17.1818V22.8636H35.625V17.1818H50ZM38.4091 11.9545H46.25V31.983C46.25 32.286 46.3021 32.5417 46.4062 32.75C46.5104 32.9489 46.6714 33.1004 46.8892 33.2045C47.107 33.2992 47.3864 33.3466 47.7273 33.3466C47.964 33.3466 48.2386 33.3182 48.5511 33.2614C48.8731 33.2045 49.1098 33.1572 49.2614 33.1193L50.3977 38.6307C50.0473 38.7348 49.5455 38.8627 48.892 39.0142C48.2481 39.1657 47.4811 39.2652 46.5909 39.3125C44.7917 39.4072 43.2813 39.2225 42.0597 38.7585C40.8381 38.285 39.9195 37.5417 39.304 36.5284C38.6884 35.5152 38.3902 34.2462 38.4091 32.7216V11.9545ZM63.4766 39.3977C61.1091 39.3977 59.0826 38.929 57.397 37.9915C55.7114 37.0445 54.4188 35.7282 53.5192 34.0426C52.6196 32.3475 52.1697 30.3826 52.1697 28.1477C52.1697 25.9129 52.6196 23.9527 53.5192 22.267C54.4188 20.572 55.7114 19.2557 57.397 18.3182C59.0826 17.3712 61.1091 16.8977 63.4766 16.8977C65.844 16.8977 67.8705 17.3712 69.5561 18.3182C71.2417 19.2557 72.5343 20.572 73.4339 22.267C74.3336 23.9527 74.7834 25.9129 74.7834 28.1477C74.7834 30.3826 74.3336 32.3475 73.4339 34.0426C72.5343 35.7282 71.2417 37.0445 69.5561 37.9915C67.8705 38.929 65.844 39.3977 63.4766 39.3977ZM63.5334 33.6023C64.1963 33.6023 64.7692 33.3797 65.2521 32.9347C65.7351 32.4896 66.1091 31.8551 66.3743 31.0312C66.6394 30.2074 66.772 29.2273 66.772 28.0909C66.772 26.9451 66.6394 25.965 66.3743 25.1506C66.1091 24.3267 65.7351 23.6922 65.2521 23.2472C64.7692 22.8021 64.1963 22.5795 63.5334 22.5795C62.8326 22.5795 62.2313 22.8021 61.7294 23.2472C61.2275 23.6922 60.844 24.3267 60.5788 25.1506C60.3137 25.965 60.1811 26.9451 60.1811 28.0909C60.1811 29.2273 60.3137 30.2074 60.5788 31.0312C60.844 31.8551 61.2275 32.4896 61.7294 32.9347C62.2313 33.3797 62.8326 33.6023 63.5334 33.6023Z" fill="#373AFF"/>
<path d="M85.8629 39.2841C84.3099 39.2841 82.88 38.8769 81.5732 38.0625C80.2758 37.2481 79.2341 36.0123 78.4482 34.3551C77.6716 32.6979 77.2834 30.6098 77.2834 28.0909C77.2834 25.4583 77.6906 23.3182 78.505 21.6705C79.3288 20.0227 80.3894 18.8153 81.6868 18.0483C82.9936 17.2812 84.3667 16.8977 85.8061 16.8977C86.8857 16.8977 87.8326 17.0871 88.647 17.4659C89.4614 17.8352 90.1432 18.3324 90.6925 18.9574C91.2417 19.5729 91.6584 20.25 91.9425 20.9886H92.0561V9.90909H99.897V39H92.1129V35.4205H91.9425C91.6394 36.1591 91.2038 36.822 90.6357 37.4091C90.0769 37.9867 89.3951 38.446 88.5902 38.7869C87.7947 39.1184 86.8857 39.2841 85.8629 39.2841ZM88.7607 33.2614C89.4804 33.2614 90.0959 33.053 90.6072 32.6364C91.1281 32.2102 91.5258 31.6136 91.8004 30.8466C92.0845 30.0701 92.2266 29.1515 92.2266 28.0909C92.2266 27.0114 92.0845 26.0881 91.8004 25.321C91.5258 24.5445 91.1281 23.9527 90.6072 23.5455C90.0959 23.1288 89.4804 22.9205 88.7607 22.9205C88.041 22.9205 87.4254 23.1288 86.9141 23.5455C86.4122 23.9527 86.0239 24.5445 85.7493 25.321C85.4841 26.0881 85.3516 27.0114 85.3516 28.0909C85.3516 29.1705 85.4841 30.0985 85.7493 30.875C86.0239 31.642 86.4122 32.2339 86.9141 32.6506C87.4254 33.0578 88.041 33.2614 88.7607 33.2614ZM114.258 39.3977C111.89 39.3977 109.864 38.929 108.178 37.9915C106.493 37.0445 105.2 35.7282 104.3 34.0426C103.401 32.3475 102.951 30.3826 102.951 28.1477C102.951 25.9129 103.401 23.9527 104.3 22.267C105.2 20.572 106.493 19.2557 108.178 18.3182C109.864 17.3712 111.89 16.8977 114.258 16.8977C116.625 16.8977 118.652 17.3712 120.337 18.3182C122.023 19.2557 123.316 20.572 124.215 22.267C125.115 23.9527 125.565 25.9129 125.565 28.1477C125.565 30.3826 125.115 32.3475 124.215 34.0426C123.316 35.7282 122.023 37.0445 120.337 37.9915C118.652 38.929 116.625 39.3977 114.258 39.3977ZM114.315 33.6023C114.978 33.6023 115.55 33.3797 116.033 32.9347C116.516 32.4896 116.89 31.8551 117.156 31.0312C117.421 30.2074 117.553 29.2273 117.553 28.0909C117.553 26.9451 117.421 25.965 117.156 25.1506C116.89 24.3267 116.516 23.6922 116.033 23.2472C115.55 22.8021 114.978 22.5795 114.315 22.5795C113.614 22.5795 113.013 22.8021 112.511 23.2472C112.009 23.6922 111.625 24.3267 111.36 25.1506C111.095 25.965 110.962 26.9451 110.962 28.0909C110.962 29.2273 111.095 30.2074 111.36 31.0312C111.625 31.8551 112.009 32.4896 112.511 32.9347C113.013 33.3797 113.614 33.6023 114.315 33.6023Z" fill="#00B8B8"/>
<g clip-path="url(#clip0_8_216)">
<path d="M11.0215 12.933C14.1472 16.9011 15.8157 21.7944 15.7552 26.8155V28.0141L16.7865 28.6416C18.1189 29.4482 19.1126 30.6993 19.5866 32.1669C19.1705 31.8605 18.7351 31.5803 18.2832 31.3278L15.5332 29.7838L15.0391 32.9001C14.9963 33.1755 14.9389 33.4485 14.8672 33.718H7.16146C7.04688 33.3655 6.95378 33.0129 6.86784 32.6463L6.24479 29.8261L3.70964 31.2362C3.2861 31.473 2.87718 31.7344 2.48503 32.0188C2.9682 30.5682 3.94119 29.3242 5.24219 28.4935L6.22331 27.866V26.7521C6.24101 21.7513 7.92963 16.8952 11.0286 12.933H11.0215ZM11.0286 10C10.8679 10.0004 10.7128 10.058 10.5918 10.1622L10.5273 10.2186C6.39774 14.7656 4.10462 20.6454 4.08203 26.745C2.32962 27.8643 1.03246 29.5543 0.417218 31.5197C-0.198024 33.485 -0.0922176 35.6007 0.716149 37.4971C1.56772 35.6455 2.99126 34.1058 4.78386 33.0975C4.96364 33.8642 5.20306 34.6161 5.5 35.3467C5.53766 35.4871 5.62114 35.6114 5.73759 35.7006C5.85404 35.7898 5.99701 35.8388 6.14453 35.8402H16.0846C16.2852 35.8402 16.4857 35.6498 16.5859 35.3537C16.8758 34.6592 17.0778 33.9322 17.1875 33.1892C18.9835 34.1932 20.4082 35.7342 21.2552 37.5887C22.1124 35.7017 22.2451 33.5727 21.6287 31.5967C21.0123 29.6206 19.6888 27.9319 17.9036 26.8437C17.9745 20.7082 15.6935 14.7718 11.5156 10.2186C11.4534 10.1501 11.3773 10.0952 11.2921 10.0576C11.207 10.0199 11.1148 10.0003 11.0215 10H11.0286Z" fill="#373AFF"/>
<path d="M11.0215 26.1598C10.4714 26.1597 9.93368 25.9994 9.47603 25.699C9.01839 25.3985 8.66133 24.9714 8.44986 24.4715C8.23839 23.9716 8.18198 23.4212 8.28774 22.8898C8.3935 22.3583 8.6567 21.8696 9.04416 21.4852C9.43161 21.1008 9.92598 20.8379 10.465 20.7297C11.0039 20.6215 11.5634 20.6728 12.0728 20.8772C12.5822 21.0815 13.0187 21.4298 13.3274 21.878C13.6361 22.3262 13.8031 22.8544 13.8073 23.3959C13.8159 23.7469 13.7541 24.096 13.6256 24.4235C13.497 24.7509 13.3042 25.0502 13.0581 25.3042C12.8121 25.5583 12.5176 25.7621 12.1915 25.9041C11.8653 26.046 11.514 26.1233 11.1576 26.1315C11.1125 26.1387 11.0666 26.1387 11.0215 26.1315V26.1598Z" fill="#373AFF"/>
<path d="M14.8958 37.5958C14.7166 37.5901 14.5381 37.6198 14.3707 37.683C14.2033 37.7462 14.0504 37.8416 13.921 37.9638C13.7916 38.086 13.6883 38.2323 13.6171 38.3943C13.5459 38.5563 13.5083 38.7307 13.5065 38.9072V43.067C13.5065 43.4297 13.6529 43.7776 13.9134 44.0342C14.174 44.2907 14.5274 44.4348 14.8958 44.4348C15.2643 44.4348 15.6177 44.2907 15.8782 44.0342C16.1388 43.7776 16.2852 43.4297 16.2852 43.067V38.9636C16.2909 38.7877 16.261 38.6126 16.1973 38.4482C16.1335 38.2839 16.0372 38.1337 15.9138 38.0064C15.7905 37.879 15.6427 37.7772 15.479 37.7067C15.3153 37.6362 15.139 37.5985 14.9603 37.5958H14.8958Z" fill="#00B8B8"/>
<path d="M7.16146 37.5957C6.97923 37.5863 6.79692 37.6129 6.62538 37.6742C6.45384 37.7355 6.29658 37.8302 6.16295 37.9525C6.02932 38.0749 5.92205 38.2224 5.84753 38.3864C5.77301 38.5504 5.73276 38.7275 5.72917 38.9071V43.067C5.72917 43.4297 5.87555 43.7776 6.13609 44.0341C6.39664 44.2906 6.75002 44.4348 7.11849 44.4348C7.48697 44.4348 7.84035 44.2906 8.10089 44.0341C8.36144 43.7776 8.50782 43.4297 8.50782 43.067V38.9635C8.51354 38.7877 8.48366 38.6125 8.41991 38.4482C8.35616 38.2838 8.25982 38.1336 8.1365 38.0063C8.01319 37.879 7.86537 37.7771 7.70165 37.7067C7.53794 37.6362 7.36161 37.5985 7.18295 37.5957H7.16146Z" fill="#00B8B8"/>
<path d="M10.9212 37.5958C10.7425 37.592 10.5648 37.623 10.3983 37.6869C10.2318 37.7507 10.0796 37.8463 9.95061 37.9681C9.82159 38.0899 9.71821 38.2355 9.64636 38.3966C9.57452 38.5577 9.53563 38.7312 9.53191 38.9072V44.6392C9.53191 45.002 9.67828 45.3499 9.93883 45.6064C10.1994 45.8629 10.5528 46.007 10.9212 46.007C11.2897 46.007 11.6431 45.8629 11.9036 45.6064C12.1642 45.3499 12.3106 45.002 12.3106 44.6392V38.9988C12.3163 38.823 12.2864 38.6478 12.2226 38.4835C12.1589 38.3191 12.0626 38.1689 11.9392 38.0416C11.8159 37.9143 11.6681 37.8124 11.5044 37.7419C11.3407 37.6714 11.1643 37.6337 10.9857 37.631L10.9212 37.5958Z" fill="#00B8B8"/>
</g>
<defs>
<clipPath id="clip0_8_216">
<rect width="22" height="36" fill="white" transform="translate(0 10)"/>
</clipPath>
</defs>
</svg>
